<mxfile host="app.diagrams.net" modified="2023-04-19T15:45:46.744Z" agent="Mozilla/5.0 (Macintosh; Intel Mac OS X 10_15_7) AppleWebKit/537.36 (KHTML, like Gecko) Chrome/112.0.0.0 Safari/537.36" version="21.2.0" etag="867zAroAO8yBkV8IQOgq" type="github">
  <diagram name="Page-1" id="CKSDARqv--vzB5yXC2y_">
    <mxGraphModel>
      <root>
        <mxCell id="0" />
        <mxCell id="1" parent="0" />
      </root>
    </mxGraphModel>
  </diagram>
</mxfile>
